<svg xmlns="http://www.w3.org/2000/svg" xmlns:xlink="http://www.w3.org/1999/xlink" xmlns:xodm="http://www.corel.com/coreldraw/odm/2003" xml:space="preserve" version="1.1" style="shape-rendering:geometricPrecision; text-rendering:geometricPrecision; image-rendering:optimizeQuality; fill-rule:evenodd; clip-rule:evenodd" viewBox="2268.73 4393.97 3652.45 1678.41">
 <defs>
  <style type="text/css">
   <![CDATA[
    .str1 {stroke:#282829;stroke-width:13.89;stroke-miterlimit:2.61313}
    .str0 {stroke:#282829;stroke-width:6.94;stroke-miterlimit:2.61313}
    .fil1 {fill:#B59E8A}
    .fil0 {fill:#F5ECE4}
   ]]>
  </style>
 </defs>
 <g id="_0">
  <metadata id="CorelCorpID_0Corel-Layer"/>
  <path class="fil0 str0" d="M5774.81 5719.95c2.69,4.81 3.62,10.25 1.33,15.14 -2.3,4.88 -7.82,9.2 -17.72,11.1 -30.32,4.09 -59.38,13.07 -83.74,25.41 -24.37,12.35 -44.17,28.02 -58.81,45.31 -29.3,34.59 -38.17,75.37 -31.74,110.46 6.43,35.09 28,64.87 62.16,79.17 17.07,7.15 37.38,10.44 59.73,7.92 22.36,-2.52 46.89,-10.79 70.04,-27.99 1.67,-1.24 3.82,-1.64 5.83,-1.11 2,0.54 3.66,1.96 4.48,3.87 4.24,9.88 10.59,17.96 17.74,24.51 7.16,6.54 15.17,11.48 23.19,14.56 8.03,3.07 16.08,4.28 23.7,3.35 7.63,-0.93 14.82,-3.99 21.34,-9.25 13.05,-10.5 23.37,-29.95 30.44,-56.35 7.08,-26.39 11.02,-59.62 11.43,-95.57 0.41,-35.95 -2.72,-74.51 -10.32,-110.86 -7.59,-36.35 -19.76,-70.36 -36.84,-97.86 -17.09,-27.5 -39.17,-48.38 -64.5,-60.6 -25.33,-12.23 -53.86,-15.78 -81.57,-11.74 -27.72,4.03 -54.43,15.57 -75.76,30.8 -21.33,15.22 -37.11,33.97 -45.31,51.53 -8.21,17.55 -8.87,33.78 -3.63,45.41 5.23,11.62 16.16,18.58 28.92,20.55 12.76,1.96 27.13,-1.02 40.29,-6.5 13.15,-5.48 25.11,-13.32 35.74,-19.77 5.33,-3.22 10.36,-6.08 15.21,-8.21 4.86,-2.13 9.52,-3.51 14.02,-4.02 4.49,-0.51 8.8,-0.13 12.64,0.75 3.84,0.87 7.21,2.28 9.44,2.87 2.11,0.57 6.42,2.28 10.8,5.22 4.37,2.94 8.81,7.09 11.5,11.91zm-8.09 110.15c7.89,-3.52 14.46,-4.79 16.7,-3 2.14,1.69 3.37,4.28 3.33,7 -0.24,17.07 -5.57,30.36 -12.89,40.37 -7.32,10.01 -16.62,16.72 -25.35,20.52 -8.73,3.8 -16.89,4.68 -22.81,3.19 -5.92,-1.49 -9.58,-5.35 -10.34,-10.74 -0.74,-5.4 1.42,-12.32 6.07,-19.63 4.66,-7.31 11.81,-14.99 19.98,-21.71 8.19,-6.73 17.4,-12.48 25.3,-15.99z"/>
  <path class="fil0 str0" d="M5496.63 5923.15c18.48,-31.23 35.32,-66.93 48.96,-102.54 13.65,-35.61 24.05,-71.12 29.83,-102.55 5.79,-31.43 6.9,-58.77 2.89,-78.93 -4.02,-20.17 -13.22,-33.15 -26.58,-36.87 -13.35,-3.71 -30.87,1.89 -49.94,17.28 -19.06,15.38 -39.61,40.68 -58.14,73.25 -9.26,16.29 -18,34.33 -25.84,53.33 -7.83,19 -14.76,38.96 -20.5,58.67l-0.95 5.29c2.93,-16.26 -0.26,-39.69 -7.05,-63.77 -6.78,-24.08 -17.13,-48.87 -28.83,-70.6 -11.69,-21.74 -24.73,-40.48 -37.45,-54.42 -12.72,-13.94 -25.14,-23.14 -36.21,-27.2 -11.07,-4.05 -20.81,-2.98 -28.72,2.7 -7.91,5.68 -14,15.94 -18.19,29.74 -8.36,27.61 -8.97,69.35 -3.7,114.54 5.28,45.19 16.26,93.54 30.41,135.93 7.07,21.2 14.94,40.96 23.36,58.5 8.41,17.55 17.37,32.88 26.68,45.52 18.64,25.28 38.66,39.55 59.1,42.15 20.43,2.61 41.33,-6.33 61.81,-24.21 20.48,-17.88 40.57,-44.56 59.05,-75.8z"/>
  <path class="fil0 str0" d="M4847.9 5924.25c13.24,-31.26 23.88,-68.03 31.83,-108.31 7.94,-40.28 13.2,-84.05 15.93,-128.76 2.74,-44.7 2.95,-90.31 0.77,-134.07 -2.17,-43.77 -6.74,-85.67 -13.65,-123.3 -6.92,-37.62 -16.19,-70.95 -27.72,-98.22 -11.53,-27.26 -25.33,-48.5 -40.9,-62.54 -15.57,-14.04 -32.93,-20.97 -50.83,-19.51 -17.89,1.46 -36.35,11.15 -53.08,32.22 -8.37,10.53 -16.28,23.94 -23.35,41.05 -7.06,17.09 -13.26,37.87 -18.09,63.56 -4.83,25.68 -8.3,56.24 -9.75,93.52 -1.46,37.28 -0.9,81.26 2.5,134.49 -12.96,-41.94 -24.53,-82.84 -36.7,-121.88 -12.15,-39.05 -24.98,-76.09 -39.59,-109.5 -14.61,-33.4 -31,-63.24 -48.98,-87.18 -17.98,-23.94 -37.51,-41.92 -57.58,-51.05 -20.07,-9.13 -40.64,-9.29 -60.5,1.34 -19.85,10.62 -38.98,32.08 -56.31,63.5 -17.34,31.43 -32.87,72.8 -45.77,120.39 -12.89,47.59 -23.14,101.3 -30.08,155.91 -6.93,54.61 -10.52,110 -10.39,161.28 0.14,51.29 4.04,98.43 11.55,138.28 7.52,39.85 18.67,72.44 32.55,96.65 13.88,24.22 30.48,40.15 48.08,47.95 17.6,7.81 36.16,7.56 53.56,-0.36 17.41,-7.93 33.6,-23.52 46.77,-46.89 13.17,-23.37 23.27,-54.56 29.62,-93.89 6.35,-39.34 8.88,-86.89 8.88,-142.38 9.66,30.52 19.13,57.6 28.42,81.97 9.3,24.35 18.45,45.98 27.59,65.36 18.3,38.76 36.7,68.63 56.11,91.39 19.41,22.76 39.84,38.3 60.79,46.94 20.96,8.63 42.39,10.28 63.04,4.92 20.65,-5.36 40.48,-17.77 58.33,-36.83 17.85,-19.08 33.7,-44.82 46.94,-76.08z"/>
  <path class="fil0 str0" d="M4904.39 5815c1.76,31.2 7.98,62.56 19.14,91.08 11.18,28.53 27.26,54.23 48.91,73.58 21.65,19.36 48.81,32.33 82.99,35.31 3.61,0.31 7.26,0.22 10.86,-0.27 21.21,-2.93 40.35,-9.29 57.52,-20.04 17.18,-10.75 32.37,-25.83 45.27,-44.57 12.91,-18.73 23.52,-41.1 31.4,-65.6 7.88,-24.5 13.02,-51.12 15.07,-78.07 2.06,-26.96 1.02,-54.23 -3.17,-80.1 -4.2,-25.85 -11.55,-50.31 -21.76,-71.85 -10.21,-21.56 -23.27,-40.2 -38.47,-54.81 -15.19,-14.61 -32.54,-25.19 -50.96,-31.01 -18.42,-5.83 -37.9,-6.91 -57.18,-2.96 -19.27,3.93 -38.32,12.89 -55.81,26.58 -17.49,13.7 -33.4,32.16 -46.5,54.52 -13.11,22.36 -23.39,48.63 -29.89,77.3 -6.5,28.67 -9.2,59.73 -7.43,90.93zm133.19 24.01c-5.8,-20.19 -7.95,-43.48 -6.85,-64.8 1.09,-21.32 5.43,-40.7 11.54,-54.44 6.11,-13.72 13.93,-21.7 21.57,-21.97 7.65,-0.27 15.08,7.23 20.93,21.38 5.85,14.15 10.13,34.93 12.02,57.7 1.89,22.76 1.38,47.37 -2.17,67.07 -3.57,19.7 -10.34,34.27 -20,37.82 -2.69,0.99 -5.63,0.99 -8.31,0 -6.88,-2.54 -12.56,-8.31 -17.29,-15.83 -4.75,-7.53 -8.53,-16.82 -11.43,-26.92z"/>
  <path class="fil1 str0" d="M3655.96 5662.17c-17.08,-27.5 -39.17,-48.38 -64.5,-60.6 -25.33,-12.23 -53.86,-15.78 -81.58,-11.74 -27.71,4.04 -54.43,15.58 -75.76,30.8 -21.33,15.22 -37.1,33.97 -45.32,51.52 -8.21,17.56 -8.86,33.78 -3.63,45.41 5.24,11.63 16.17,18.59 28.93,20.56 12.75,1.96 27.13,-1.02 40.28,-6.5 13.16,-5.48 25.11,-13.33 35.74,-19.77 5.31,-3.22 10.35,-6.09 15.21,-8.22 4.85,-2.12 9.53,-3.5 14.01,-4.01 4.49,-0.51 8.8,-0.13 12.63,0.74 3.83,0.88 7.22,2.28 9.45,2.88 2.1,0.56 6.42,2.28 10.79,5.21 4.37,2.94 8.82,7.1 11.49,11.9 2.69,4.8 3.63,10.26 1.33,15.15 -2.29,4.89 -7.82,9.19 -17.72,11.09 -30.31,4.09 -59.37,13.07 -83.73,25.42 -24.37,12.34 -44.17,28.02 -58.81,45.32 -29.29,34.58 -38.17,75.36 -31.74,110.45 6.43,35.09 28.01,64.88 62.16,79.17 17.08,7.16 37.39,10.44 59.74,7.92 22.35,-2.52 46.89,-10.79 70.04,-27.99 1.67,-1.24 3.82,-1.64 5.83,-1.11 2,0.54 3.66,1.97 4.48,3.88 4.25,9.86 10.58,17.96 17.75,24.5 7.16,6.54 15.15,11.47 23.18,14.56 8.03,3.09 16.09,4.28 23.71,3.35 7.63,-0.93 14.82,-4 21.34,-9.24 13.05,-10.51 23.37,-29.96 30.44,-56.36 7.08,-26.4 11.02,-59.63 11.43,-95.57 0.41,-35.94 -2.73,-74.51 -10.33,-110.86 -7.59,-36.34 -19.76,-70.36 -36.84,-97.85zm-100.34 168.32c7.9,-3.52 14.46,-4.79 16.72,-3 2.13,1.69 3.35,4.28 3.32,6.99 -0.25,17.08 -5.57,30.37 -12.89,40.37 -7.32,10.01 -16.61,16.72 -25.34,20.51 -8.73,3.8 -16.89,4.69 -22.81,3.2 -5.91,-1.49 -9.58,-5.35 -10.33,-10.75 -0.76,-5.4 1.41,-12.32 6.07,-19.63 4.66,-7.31 11.8,-14.98 19.99,-21.71 8.19,-6.72 17.39,-12.47 25.29,-15.99z"/>
  <path class="fil1 str0" d="M3716.28 5695.85c0.83,32.38 3.24,66.21 7.06,99.07 3.83,32.86 9.07,64.73 15.53,93.32 6.46,28.58 14.12,53.84 22.73,74.13 8.6,20.27 18.15,35.55 28.29,45.13 10.13,9.58 20.85,13.49 31.7,12.11 10.85,-1.38 21.83,-8.02 32.44,-18.63 10.61,-10.61 20.85,-25.17 30.3,-42 9.44,-16.81 18.09,-35.86 25.87,-55.43 7.79,-19.56 14.69,-39.71 21.42,-58.56 0.5,-1.41 1.87,-2.32 3.36,-2.26 1.5,0.07 2.76,1.12 3.13,2.57 10.65,41.91 21.79,74.98 33.1,101.08 11.31,26.09 22.76,45.19 33.96,58.2 22.38,26.03 43.53,27.5 62.22,7.63 9.34,-9.93 18.14,-25.19 26.35,-44.81 8.21,-19.63 15.85,-43.63 22.88,-70.51 14.03,-53.76 25.69,-118.99 33.15,-180.59 3.73,-30.81 6.38,-60.68 7.6,-88 1.21,-27.33 1,-52.08 -0.94,-73.1 -1.94,-21.02 -5.61,-38.29 -11.05,-51.12 -5.45,-12.83 -12.69,-21.21 -21.35,-24.83 -8.67,-3.63 -18.78,-2.51 -29.46,3.38 -10.68,5.89 -21.91,16.55 -32.39,31.76 -10.47,15.19 -20.14,34.94 -27.81,58.78 -7.69,23.85 -13.23,51.75 -16.93,83.17 -0.2,1.66 -1.56,2.93 -3.21,3 -1.66,0.07 -3.13,-1.05 -3.49,-2.67 -7.65,-35.24 -14.59,-61.87 -21.37,-82.4 -6.8,-20.54 -13.43,-34.96 -20.17,-45.09 -6.75,-10.13 -13.59,-15.94 -20.54,-18.67 -6.95,-2.73 -14.01,-2.35 -21.03,0.35 -14.05,5.42 -27.93,20 -39.81,41.13 -11.88,21.12 -21.6,49.06 -28.62,82.37 -0.35,1.64 -1.84,2.79 -3.52,2.69 -1.68,-0.1 -3.04,-1.41 -3.19,-3.09 -3.21,-34.69 -9.39,-61.74 -17.2,-83.45 -7.83,-21.71 -17.28,-38.02 -27.17,-49.48 -9.88,-11.46 -20.2,-18.02 -30,-19.49 -9.81,-1.47 -19.11,2.2 -27.24,11.14 -8.13,8.93 -15.11,23.17 -20.57,42.21 -5.47,19.04 -9.44,42.91 -11.78,70.3 -2.35,27.39 -3.07,58.29 -2.24,90.67z"/>
  <path class="fil1 str0" d="M3276.55 5632.06c-4.33,-42.17 -6,-81.52 -2.79,-117.78 3.19,-36.26 11.19,-69.45 23.87,-99.96 12.67,-30.52 29.96,-58.37 50.45,-84.31 40.98,-51.88 94.57,-96.23 145.22,-139.25 25.31,-21.5 49.9,-42.65 72.14,-63.95 22.25,-21.29 42.18,-42.72 58.65,-64.51 16.49,-21.79 29.53,-43.94 38.54,-66.37 9.01,-22.44 13.97,-45.16 14.75,-67.88 1.55,-45.41 -13.94,-90.84 -43.88,-132.01 -29.94,-41.16 -74.15,-77.91 -127.49,-105.32 -53.35,-27.43 -115.72,-45.45 -181.5,-50.2 -65.76,-4.76 -134.89,3.76 -202.09,27.55 -67.19,23.8 -132.45,62.89 -190.91,117.19 -58.48,54.29 -110.17,123.8 -150.52,206.33 -40.34,82.53 -69.34,178.16 -82.63,282.15 -6.65,51.99 -9.37,106.02 -7.66,161.08 1.72,55.06 7.87,111.17 18.93,166.85 11.07,55.65 27.05,110.91 48.26,163.52 21.23,52.6 47.7,102.57 79.42,146.6 31.72,44.04 68.74,82.17 110.31,109.61 41.57,27.44 87.79,44.23 136.48,44.03 37.89,-0.15 74.94,-11.3 106.63,-32.08 27.77,-18.21 48.03,-38.5 62.99,-59.94 14.97,-21.44 24.64,-44.05 30.85,-67.13 12.43,-46.17 11.37,-94.11 7.36,-140.57 -4.02,-46.45 -11.07,-91.49 -15.38,-133.66zm41.91 -487.53c-28.02,-0 -50.94,-11.81 -69.11,-29.16 -18.17,-17.38 -31.57,-40.37 -40.71,-64.79 -9.13,-24.43 -14,-50.34 -15.18,-75.06 -1.19,-24.73 1.29,-48.3 6.73,-69.14 5.44,-20.85 13.81,-39 24.31,-53.68 10.49,-14.67 23.11,-25.89 36.94,-33.44 27.66,-15.09 60.15,-15.21 89.91,-2.89 29.76,12.34 56.67,37.01 74.46,68.26 17.79,31.23 26.25,68.94 23.13,105.65 -1.56,18.37 -5.94,36.45 -12.73,53.29 -6.81,16.84 -16.07,32.43 -26.76,45.93 -10.69,13.49 -22.84,24.86 -34.69,33.48 -11.85,8.62 -23.39,14.49 -31.93,17.44 -7.85,2.71 -16.09,4.08 -24.39,4.08z"/>
  <path class="fil1 str0" d="M2628.42 5803.96c8.94,-27.07 6.39,-54.54 -7.98,-75.33 -7.19,-10.41 -17.26,-19.12 -29.79,-25.39 -12.53,-6.28 -27.52,-10.1 -44.11,-11.02 -16.59,-0.92 -34.8,1.11 -53.3,5.91 -18.5,4.8 -37.29,12.43 -54.38,21.71 -20.69,11.25 -39.19,26.13 -54.61,43.94 -12.15,14.04 -21.8,27.71 -28.11,41.09 -6.31,13.37 -9.3,26.39 -8.87,38.59 0.87,24.4 15.73,45.37 39.68,58.44 23.94,13.07 56.67,18.07 90.15,13.75 33.48,-4.32 67.54,-17.93 94.78,-38.04 27.25,-20.1 47.59,-46.6 56.54,-73.65z"/>
  <path class="fil1 str0" d="M2450.44 5436.61c29.22,-4.66 54.7,-15.22 72.2,-29.97 17.5,-14.76 27.02,-33.76 26.53,-53.99 -0.49,-20.23 -11,-41.75 -31.26,-59.54 -20.28,-17.78 -50.3,-31.91 -87.26,-34.25 -18.47,-1.16 -38.63,0.68 -59.83,6.94 -21.17,6.26 -43.41,16.94 -65.79,33.8 -4.27,3.22 -8.08,7 -11.31,11.26 -23.8,31.26 -21.75,58.09 -7.19,78.67 14.55,20.59 41.68,34.96 71.69,42.73 30.03,7.79 63,9.01 92.21,4.35z"/>
  <path class="fil1 str0" d="M2461.58 5004.48c37.23,9.04 73.86,9.61 103.16,3.08 29.29,-6.54 51.24,-20.17 61.96,-38.32 10.7,-18.16 10.13,-40.81 -2.46,-64.16 -12.61,-23.35 -37.35,-47.4 -70.83,-67.13 -16.73,-9.87 -35.58,-18.65 -55.61,-25.62 -20.03,-6.97 -41.22,-12.12 -62.2,-14.68 -20.96,-2.57 -41.7,-2.54 -60.3,0.91 -18.57,3.46 -35.02,10.33 -46.69,21.45 -8.59,8.19 -13.93,19.23 -15,31.06 -3.7,40.89 15.68,75.17 44.28,101.04 28.58,25.87 66.44,43.36 103.69,52.38z"/>
  <path class="fil1 str0" d="M2640.31 4542.33c12.98,31.59 35.04,61.28 61.45,82.73 26.41,21.44 57.05,34.57 84.98,36.62 27.94,2.05 53.03,-6.95 68.17,-25.62 7.59,-9.33 12.69,-21.01 14.69,-34.48 2,-13.47 0.89,-28.71 -3.55,-44.91 -4.44,-16.2 -12.21,-33.37 -22.79,-50.41 -10.59,-17.04 -24.03,-33.98 -38.55,-49.46 -6.17,-6.57 -12.9,-12.63 -20.15,-18.03 -22,-14.72 -41.46,-25.13 -58.83,-31.2 -17.38,-6.08 -32.63,-7.86 -45.66,-5.88 -26.08,3.97 -43.18,23.11 -49.87,49.46 -6.71,26.34 -2.88,59.62 10.09,91.18z"/>
  <path class="fil1 str1" d="M2931.52 4785.27c-58.48,54.29 -110.17,123.8 -150.52,206.33 -40.34,82.53 -69.34,178.16 -82.63,282.15 -6.65,51.99 -9.37,106.02 -7.66,161.08 1.72,55.06 7.87,111.17 18.93,166.85 11.07,55.65 27.05,110.91 48.26,163.52 21.23,52.6 47.7,102.57 79.42,146.6 31.72,44.04 68.74,82.17 110.31,109.61 41.57,27.44 87.79,44.23 136.48,44.03 37.89,-0.15 74.94,-11.3 106.63,-32.08 27.77,-18.21 48.03,-38.5 62.99,-59.94 14.97,-21.44 24.64,-44.05 30.85,-67.13 12.43,-46.17 11.37,-94.11 7.36,-140.57 -4.02,-46.45 -11.07,-91.49 -15.38,-133.66 -4.33,-42.17 -6,-81.52 -2.79,-117.78 3.19,-36.26 11.19,-69.45 23.87,-99.96 12.67,-30.52 29.96,-58.37 50.45,-84.31 40.98,-51.88 94.57,-96.23 145.22,-139.25 25.31,-21.5 49.9,-42.65 72.14,-63.95 22.25,-21.29 42.18,-42.72 58.65,-64.51 16.49,-21.79 29.53,-43.94 38.54,-66.37 9.01,-22.44 13.97,-45.16 14.75,-67.88 1.55,-45.41 -13.94,-90.84 -43.88,-132.01 -29.94,-41.16 -74.15,-77.91 -127.49,-105.32 -53.35,-27.43 -115.72,-45.45 -181.5,-50.2 -65.76,-4.76 -134.89,3.76 -202.09,27.55 -67.19,23.8 -132.45,62.89 -190.91,117.19zm386.93 359.26c-28.02,-0 -50.94,-11.81 -69.11,-29.16 -18.17,-17.38 -31.57,-40.37 -40.71,-64.79 -9.13,-24.43 -14,-50.34 -15.18,-75.06 -1.19,-24.73 1.29,-48.3 6.73,-69.14 5.44,-20.85 13.81,-39 24.31,-53.68 10.49,-14.67 23.11,-25.89 36.94,-33.44 27.66,-15.09 60.15,-15.21 89.91,-2.89 29.76,12.34 56.67,37.01 74.46,68.26 17.79,31.23 26.25,68.94 23.13,105.65 -1.56,18.37 -5.94,36.45 -12.73,53.29 -6.81,16.84 -16.07,32.43 -26.76,45.93 -10.69,13.49 -22.84,24.86 -34.69,33.48 -11.85,8.62 -23.39,14.49 -31.93,17.44 -7.85,2.71 -16.09,4.08 -24.39,4.08z"/>
  <path class="fil1 str1" d="M2517.91 5293.11c-20.28,-17.78 -50.3,-31.91 -87.26,-34.25 -18.47,-1.16 -38.63,0.68 -59.83,6.94 -21.17,6.26 -43.41,16.94 -65.79,33.8 -4.27,3.22 -8.08,7 -11.31,11.26 -23.8,31.26 -21.75,58.09 -7.19,78.67 14.55,20.59 41.68,34.96 71.69,42.73 30.03,7.79 63,9.01 92.21,4.35 29.22,-4.66 54.7,-15.22 72.2,-29.97 17.5,-14.76 27.02,-33.76 26.53,-53.99 -0.49,-20.23 -11,-41.75 -31.26,-59.54z"/>
  <path class="fil1 str1" d="M2461.58 5004.48c37.23,9.04 73.86,9.61 103.16,3.08 29.29,-6.54 51.24,-20.17 61.96,-38.32 10.7,-18.16 10.13,-40.81 -2.46,-64.16 -12.61,-23.35 -37.35,-47.4 -70.83,-67.13 -16.73,-9.87 -35.58,-18.65 -55.61,-25.62 -20.03,-6.97 -41.22,-12.12 -62.2,-14.68 -20.96,-2.57 -41.7,-2.54 -60.3,0.91 -18.57,3.46 -35.02,10.33 -46.69,21.45 -8.59,8.19 -13.93,19.23 -15,31.06 -3.7,40.89 15.68,75.17 44.28,101.04 28.58,25.87 66.44,43.36 103.69,52.38z"/>
  <path class="fil1 str1" d="M2701.76 4625.06c26.41,21.44 57.05,34.57 84.98,36.62 27.94,2.05 53.03,-6.95 68.17,-25.62 7.59,-9.33 12.69,-21.01 14.69,-34.48 2,-13.47 0.89,-28.71 -3.55,-44.91 -4.44,-16.2 -12.21,-33.37 -22.79,-50.41 -10.59,-17.04 -24.03,-33.98 -38.55,-49.46 -6.17,-6.57 -12.9,-12.63 -20.15,-18.03 -22,-14.72 -41.46,-25.13 -58.83,-31.2 -17.38,-6.08 -32.63,-7.86 -45.66,-5.88 -26.08,3.97 -43.18,23.11 -49.87,49.46 -6.71,26.34 -2.88,59.62 10.09,91.18 12.98,31.59 35.04,61.28 61.45,82.73z"/>
  <path class="fil1 str1" d="M2590.65 5703.23c-12.53,-6.28 -27.52,-10.1 -44.11,-11.02 -16.59,-0.92 -34.8,1.11 -53.3,5.91 -18.5,4.8 -37.29,12.43 -54.38,21.71 -20.69,11.25 -39.19,26.13 -54.61,43.94 -12.15,14.04 -21.8,27.71 -28.11,41.09 -6.31,13.37 -9.3,26.39 -8.87,38.59 0.87,24.4 15.73,45.37 39.68,58.44 23.94,13.07 56.67,18.07 90.15,13.75 33.48,-4.32 67.54,-17.93 94.78,-38.04 27.25,-20.1 47.59,-46.6 56.54,-73.65 8.94,-27.07 6.39,-54.54 -7.98,-75.33 -7.19,-10.41 -17.26,-19.12 -29.79,-25.39z"/>
  <path class="fil1 str1" d="M3404.76 5817.32c-29.29,34.58 -38.17,75.36 -31.74,110.45 6.43,35.09 28.01,64.88 62.16,79.17 17.08,7.16 37.39,10.44 59.74,7.92 22.35,-2.52 46.89,-10.79 70.04,-27.99 1.67,-1.24 3.82,-1.64 5.83,-1.11 2,0.54 3.66,1.97 4.48,3.88 4.25,9.86 10.58,17.96 17.75,24.5 7.16,6.54 15.15,11.47 23.18,14.56 8.03,3.09 16.09,4.28 23.71,3.35 7.63,-0.93 14.82,-4 21.34,-9.24 13.05,-10.51 23.37,-29.96 30.44,-56.36 7.08,-26.4 11.02,-59.63 11.43,-95.57 0.41,-35.94 -2.73,-74.51 -10.33,-110.86 -7.59,-36.34 -19.76,-70.36 -36.84,-97.85 -17.08,-27.5 -39.17,-48.38 -64.5,-60.6 -25.33,-12.23 -53.86,-15.78 -81.58,-11.74 -27.71,4.04 -54.43,15.58 -75.76,30.8 -21.33,15.22 -37.1,33.97 -45.32,51.52 -8.21,17.56 -8.86,33.78 -3.63,45.41 5.24,11.63 16.17,18.59 28.93,20.56 12.75,1.96 27.13,-1.02 40.28,-6.5 13.16,-5.48 25.11,-13.33 35.74,-19.77 5.31,-3.22 10.35,-6.09 15.21,-8.22 4.85,-2.12 9.53,-3.5 14.01,-4.01 4.49,-0.51 8.8,-0.13 12.63,0.74 3.83,0.88 7.22,2.28 9.45,2.88 2.1,0.56 6.42,2.28 10.79,5.21 4.37,2.94 8.82,7.1 11.49,11.9 2.69,4.8 3.63,10.26 1.33,15.15 -2.29,4.89 -7.82,9.19 -17.72,11.09 -30.31,4.09 -59.37,13.07 -83.73,25.42 -24.37,12.34 -44.17,28.02 -58.81,45.32zm150.85 13.17c7.9,-3.52 14.46,-4.79 16.72,-3 2.13,1.69 3.35,4.28 3.32,6.99 -0.25,17.08 -5.57,30.37 -12.89,40.37 -7.32,10.01 -16.61,16.72 -25.34,20.51 -8.73,3.8 -16.89,4.69 -22.81,3.2 -5.91,-1.49 -9.58,-5.35 -10.33,-10.75 -0.76,-5.4 1.41,-12.32 6.07,-19.63 4.66,-7.31 11.8,-14.98 19.99,-21.71 8.19,-6.72 17.39,-12.47 25.29,-15.99z"/>
  <path class="fil1 str1" d="M3723.35 5794.93c3.83,32.86 9.07,64.73 15.53,93.32 6.46,28.58 14.12,53.84 22.73,74.13 8.6,20.27 18.15,35.55 28.29,45.13 10.13,9.58 20.85,13.49 31.7,12.11 10.85,-1.38 21.83,-8.02 32.44,-18.63 10.61,-10.61 20.85,-25.17 30.3,-42 9.44,-16.81 18.09,-35.86 25.87,-55.43 7.79,-19.56 14.69,-39.71 21.42,-58.56 0.5,-1.41 1.87,-2.32 3.36,-2.26 1.5,0.07 2.76,1.12 3.13,2.57 10.65,41.91 21.79,74.98 33.1,101.08 11.31,26.09 22.76,45.19 33.96,58.2 22.38,26.03 43.53,27.5 62.22,7.63 9.34,-9.93 18.14,-25.19 26.35,-44.81 8.21,-19.63 15.85,-43.63 22.88,-70.51 14.03,-53.76 25.69,-118.99 33.15,-180.59 3.73,-30.81 6.38,-60.68 7.6,-88 1.21,-27.33 1,-52.08 -0.94,-73.1 -1.94,-21.02 -5.61,-38.29 -11.05,-51.12 -5.45,-12.83 -12.69,-21.21 -21.35,-24.83 -8.67,-3.63 -18.78,-2.51 -29.46,3.38 -10.68,5.89 -21.91,16.55 -32.39,31.76 -10.47,15.19 -20.14,34.94 -27.81,58.78 -7.69,23.85 -13.23,51.75 -16.93,83.17 -0.2,1.66 -1.56,2.93 -3.21,3 -1.66,0.07 -3.13,-1.05 -3.49,-2.67 -7.65,-35.24 -14.59,-61.87 -21.37,-82.4 -6.8,-20.54 -13.43,-34.96 -20.17,-45.09 -6.75,-10.13 -13.59,-15.94 -20.54,-18.67 -6.95,-2.73 -14.01,-2.35 -21.03,0.35 -14.05,5.42 -27.93,20 -39.81,41.13 -11.88,21.12 -21.6,49.06 -28.62,82.37 -0.35,1.64 -1.84,2.79 -3.52,2.69 -1.68,-0.1 -3.04,-1.41 -3.19,-3.09 -3.21,-34.69 -9.39,-61.74 -17.2,-83.45 -7.83,-21.71 -17.28,-38.02 -27.17,-49.48 -9.88,-11.46 -20.2,-18.02 -30,-19.49 -9.81,-1.47 -19.11,2.2 -27.24,11.14 -8.13,8.93 -15.11,23.17 -20.57,42.21 -5.47,19.04 -9.44,42.91 -11.78,70.3 -2.35,27.39 -3.07,58.29 -2.24,90.67 0.83,32.38 3.24,66.21 7.06,99.07z"/>
  <path class="fil0 str1" d="M4316.13 5430.02c-12.89,47.59 -23.14,101.3 -30.08,155.91 -6.93,54.61 -10.52,110 -10.39,161.28 0.14,51.29 4.04,98.43 11.55,138.28 7.52,39.85 18.67,72.44 32.55,96.65 13.88,24.22 30.48,40.15 48.08,47.95 17.6,7.81 36.16,7.56 53.56,-0.36 17.41,-7.93 33.6,-23.52 46.77,-46.89 13.17,-23.37 23.27,-54.56 29.62,-93.89 6.35,-39.34 8.88,-86.89 8.88,-142.38 9.66,30.52 19.13,57.6 28.42,81.97 9.3,24.35 18.45,45.98 27.59,65.36 18.3,38.76 36.7,68.63 56.11,91.39 19.41,22.76 39.84,38.3 60.79,46.94 20.96,8.63 42.39,10.28 63.04,4.92 20.65,-5.36 40.48,-17.77 58.33,-36.83 17.85,-19.08 33.7,-44.82 46.94,-76.08 13.24,-31.26 23.88,-68.03 31.83,-108.31 7.94,-40.28 13.2,-84.05 15.93,-128.76 2.74,-44.7 2.95,-90.31 0.77,-134.07 -2.17,-43.77 -6.74,-85.67 -13.65,-123.3 -6.92,-37.62 -16.19,-70.95 -27.72,-98.22 -11.53,-27.26 -25.33,-48.5 -40.9,-62.54 -15.57,-14.04 -32.93,-20.97 -50.83,-19.51 -17.89,1.46 -36.35,11.15 -53.08,32.22 -8.37,10.53 -16.28,23.94 -23.35,41.05 -7.06,17.09 -13.26,37.87 -18.09,63.56 -4.83,25.68 -8.3,56.24 -9.75,93.52 -1.46,37.28 -0.9,81.26 2.5,134.49 -12.96,-41.94 -24.53,-82.84 -36.7,-121.88 -12.15,-39.05 -24.98,-76.09 -39.59,-109.5 -14.61,-33.4 -31,-63.24 -48.98,-87.18 -17.98,-23.94 -37.51,-41.92 -57.58,-51.05 -20.07,-9.13 -40.64,-9.29 -60.5,1.34 -19.85,10.62 -38.98,32.08 -56.31,63.5 -17.34,31.43 -32.87,72.8 -45.77,120.39z"/>
  <path class="fil0 str1" d="M4988.21 5592.26c-17.49,13.7 -33.4,32.16 -46.5,54.52 -13.11,22.36 -23.39,48.63 -29.89,77.3 -6.5,28.67 -9.2,59.73 -7.43,90.93 1.76,31.2 7.98,62.56 19.14,91.08 11.18,28.53 27.26,54.23 48.91,73.58 21.65,19.36 48.81,32.33 82.99,35.31 3.61,0.31 7.26,0.22 10.86,-0.27 21.21,-2.93 40.35,-9.29 57.52,-20.04 17.18,-10.75 32.37,-25.83 45.27,-44.57 12.91,-18.73 23.52,-41.1 31.4,-65.6 7.88,-24.5 13.02,-51.12 15.07,-78.07 2.06,-26.96 1.02,-54.23 -3.17,-80.1 -4.2,-25.85 -11.55,-50.31 -21.76,-71.85 -10.21,-21.56 -23.27,-40.2 -38.47,-54.81 -15.19,-14.61 -32.54,-25.19 -50.96,-31.01 -18.42,-5.83 -37.9,-6.91 -57.18,-2.96 -19.27,3.93 -38.32,12.89 -55.81,26.58zm75.63 105.54c7.65,-0.27 15.08,7.23 20.93,21.38 5.85,14.15 10.13,34.93 12.02,57.7 1.89,22.76 1.38,47.37 -2.17,67.07 -3.57,19.7 -10.34,34.27 -20,37.82 -2.69,0.99 -5.63,0.99 -8.31,0 -6.88,-2.54 -12.56,-8.31 -17.29,-15.83 -4.75,-7.53 -8.53,-16.82 -11.43,-26.92 -5.8,-20.19 -7.95,-43.48 -6.85,-64.8 1.09,-21.32 5.43,-40.7 11.54,-54.44 6.11,-13.72 13.93,-21.7 21.57,-21.97z"/>
  <path class="fil0 str1" d="M5236.21 5741.06c5.28,45.19 16.26,93.54 30.41,135.93 7.07,21.2 14.94,40.96 23.36,58.5 8.41,17.55 17.37,32.88 26.68,45.52 18.64,25.28 38.66,39.55 59.1,42.15 20.43,2.61 41.33,-6.33 61.81,-24.21 20.48,-17.88 40.57,-44.56 59.05,-75.8 18.48,-31.23 35.32,-66.93 48.96,-102.54 13.65,-35.61 24.05,-71.12 29.83,-102.55 5.79,-31.43 6.9,-58.77 2.89,-78.93 -4.02,-20.17 -13.22,-33.15 -26.58,-36.87 -13.35,-3.71 -30.87,1.89 -49.94,17.28 -19.06,15.38 -39.61,40.68 -58.14,73.25 -9.26,16.29 -18,34.33 -25.84,53.33 -7.83,19 -14.76,38.96 -20.5,58.67l-0.95 5.29c2.93,-16.26 -0.26,-39.69 -7.05,-63.77 -6.78,-24.08 -17.13,-48.87 -28.83,-70.6 -11.69,-21.74 -24.73,-40.48 -37.45,-54.42 -12.72,-13.94 -25.14,-23.14 -36.21,-27.2 -11.07,-4.05 -20.81,-2.98 -28.72,2.7 -7.91,5.68 -14,15.94 -18.19,29.74 -8.36,27.61 -8.97,69.35 -3.7,114.54z"/>
  <path class="fil0 str1" d="M5758.41 5746.19c-30.32,4.09 -59.38,13.07 -83.74,25.41 -24.37,12.35 -44.17,28.02 -58.81,45.31 -29.3,34.59 -38.17,75.37 -31.74,110.46 6.43,35.09 28,64.87 62.16,79.17 17.07,7.15 37.38,10.44 59.73,7.92 22.36,-2.52 46.89,-10.79 70.04,-27.99 1.67,-1.24 3.82,-1.64 5.83,-1.11 2,0.54 3.66,1.96 4.48,3.87 4.24,9.88 10.59,17.96 17.74,24.51 7.16,6.54 15.17,11.48 23.19,14.56 8.03,3.07 16.08,4.28 23.7,3.35 7.63,-0.93 14.82,-3.99 21.34,-9.25 13.05,-10.5 23.37,-29.95 30.44,-56.35 7.08,-26.39 11.02,-59.62 11.43,-95.57 0.41,-35.95 -2.72,-74.51 -10.32,-110.86 -7.59,-36.35 -19.76,-70.36 -36.84,-97.86 -17.09,-27.5 -39.17,-48.38 -64.5,-60.6 -25.33,-12.23 -53.86,-15.78 -81.57,-11.74 -27.72,4.03 -54.43,15.57 -75.76,30.8 -21.33,15.22 -37.11,33.97 -45.31,51.53 -8.21,17.55 -8.87,33.78 -3.63,45.41 5.23,11.62 16.16,18.58 28.92,20.55 12.76,1.96 27.13,-1.02 40.29,-6.5 13.15,-5.48 25.11,-13.32 35.74,-19.77 5.33,-3.22 10.36,-6.08 15.21,-8.21 4.86,-2.13 9.52,-3.51 14.02,-4.02 4.49,-0.51 8.8,-0.13 12.64,0.75 3.84,0.87 7.21,2.28 9.44,2.87 2.11,0.57 6.42,2.28 10.8,5.22 4.37,2.94 8.81,7.09 11.5,11.91 2.69,4.81 3.62,10.25 1.33,15.14 -2.3,4.88 -7.82,9.2 -17.72,11.1zm8.3 83.91c7.89,-3.52 14.46,-4.79 16.7,-3 2.14,1.69 3.37,4.28 3.33,7 -0.24,17.07 -5.57,30.36 -12.89,40.37 -7.32,10.01 -16.62,16.72 -25.35,20.52 -8.73,3.8 -16.89,4.68 -22.81,3.19 -5.92,-1.49 -9.58,-5.35 -10.34,-10.74 -0.74,-5.4 1.42,-12.32 6.07,-19.63 4.66,-7.31 11.81,-14.99 19.98,-21.71 8.19,-6.73 17.4,-12.48 25.3,-15.99z"/>
 </g>
</svg>